<?xml version="1.0" encoding="UTF-8" standalone="no"?>
<svg
   xmlns:dc="http://purl.org/dc/elements/1.1/"
   xmlns:cc="http://creativecommons.org/ns#"
   xmlns:rdf="http://www.w3.org/1999/02/22-rdf-syntax-ns#"
   xmlns:svg="http://www.w3.org/2000/svg"
   xmlns="http://www.w3.org/2000/svg"
   xmlns:xlink="http://www.w3.org/1999/xlink"
   xmlns:sodipodi="http://sodipodi.sourceforge.net/DTD/sodipodi-0.dtd"
   xmlns:inkscape="http://www.inkscape.org/namespaces/inkscape"
   sodipodi:docname="delta-transparent.svg"
   inkscape:version="1.0beta2 (2b71d25, 2019-12-03)"
   id="svg8"
   version="1.1"
   viewBox="0 0 210 297"
   height="297mm"
   width="210mm">
  <defs
     id="defs2">
    <linearGradient
       id="linearGradient4409">
      <stop
         style="stop-color:#f9f9f9;stop-opacity:1"
         offset="0"
         id="stop4411" />
      <stop
         style="stop-color:#cccccc;stop-opacity:0;"
         offset="1"
         id="stop4413" />
    </linearGradient>
    <linearGradient
       id="linearGradient4399">
      <stop
         style="stop-color:#f9f9f9;stop-opacity:1;"
         offset="0"
         id="stop4401" />
      <stop
         style="stop-color:#f9f9f9;stop-opacity:0;"
         offset="1"
         id="stop4403" />
    </linearGradient>
    <linearGradient
       id="linearGradient4375">
      <stop
         style="stop-color:#364e59;stop-opacity:1;"
         offset="0"
         id="stop4377" />
      <stop
         style="stop-color:#364e59;stop-opacity:0;"
         offset="1"
         id="stop4379" />
    </linearGradient>
    <linearGradient
       id="linearGradient4367">
      <stop
         style="stop-color:#dc000f;stop-opacity:1;"
         offset="0"
         id="stop4369" />
      <stop
         style="stop-color:#00ff00;stop-opacity:0;"
         offset="1"
         id="stop4371" />
    </linearGradient>
    <linearGradient
       id="linearGradient4359">
      <stop
         style="stop-color:#dc000f;stop-opacity:1;"
         offset="0"
         id="stop4361" />
      <stop
         style="stop-color:#000000;stop-opacity:0;"
         offset="1"
         id="stop4363" />
    </linearGradient>
    <linearGradient
       inkscape:collect="always"
       xlink:href="#linearGradient4409"
       id="linearGradient4415"
       x1="16.345125"
       y1="3.8388948"
       x2="36.001561"
       y2="24.359164"
       gradientUnits="userSpaceOnUse" />
  </defs>
  <sodipodi:namedview
     inkscape:window-maximized="0"
     inkscape:window-y="23"
     inkscape:window-x="0"
     inkscape:window-height="755"
     inkscape:window-width="1280"
     inkscape:pagecheckerboard="true"
     showgrid="false"
     inkscape:document-rotation="0"
     inkscape:current-layer="layer1"
     inkscape:document-units="mm"
     inkscape:cy="1022.0855"
     inkscape:cx="406.01346"
     inkscape:zoom="9.9232969"
     inkscape:pageshadow="2"
     inkscape:pageopacity="0.0"
     borderopacity="1.0"
     bordercolor="#666666"
     pagecolor="#ffffff"
     id="base" />
  <metadata
     id="metadata5">
    <rdf:RDF>
      <cc:Work
         rdf:about="">
        <dc:format>image/svg+xml</dc:format>
        <dc:type
           rdf:resource="http://purl.org/dc/dcmitype/StillImage" />
        <dc:title></dc:title>
      </cc:Work>
    </rdf:RDF>
  </metadata>
  <g
     id="layer1"
     inkscape:groupmode="layer"
     inkscape:label="Ebene 1">
    <rect
       y="261.66498"
       x="99.909706"
       height="15.565392"
       width="16.570728"
       id="rect253"
       style="fill:none;stroke-width:0.264583" />
    <path
       transform="scale(0.26458333)"
       d="M 408.29688 998.25 C 395.74745 998.25 385.57031 1008.4291 385.57031 1020.9785 C 385.57031 1033.5279 395.74745 1043.707 408.29688 1043.707 C 422.63463 1043.3642 417.91289 1039.0039 431.99609 1044.6758 C 424.45064 1031.6742 430.91159 1031.3464 431.02539 1020.9785 C 431.02539 1008.4291 420.8463 998.25 408.29688 998.25 z M 408.26367 1002.2734 C 418.60011 1002.1477 426.98438 1010.4374 426.98438 1020.7832 C 426.84604 1028.7715 420.69367 1030.0086 426.64453 1039.3047 C 415.78122 1034.2582 418.09143 1039.7084 408.26367 1039.748 C 397.92727 1039.8738 389.54492 1031.5841 389.54492 1021.2383 C 389.54492 1010.8925 397.92727 1002.3993 408.26367 1002.2734 z "
       style="fill:#ffffff;fill-opacity:1;stroke:none;stroke-width:0.57405;stroke-linejoin:round;stroke-miterlimit:4;stroke-dasharray:none;stroke-opacity:1"
       id="path3769" />
    <g
       transform="matrix(0.26458333,0,0,0.26458333,101.6747,263.77964)"
       id="text4383"
       style="font-style:normal;font-weight:normal;font-size:40px;line-height:125%;font-family:Sans;letter-spacing:0px;word-spacing:0px;fill:#000000;fill-opacity:1;stroke:none" />
    <g
       transform="matrix(0.26458333,0,0,0.26458333,101.6747,263.77964)"
       id="text4421"
       style="font-style:normal;font-weight:normal;font-size:40px;line-height:125%;font-family:Sans;letter-spacing:0px;word-spacing:0px;fill:#000000;fill-opacity:1;stroke:none" />
    <g
       id="text3797"
       style="font-style:normal;font-weight:normal;font-size:42.1059px;line-height:125%;font-family:Sans;letter-spacing:0px;word-spacing:0px;fill:#ffffff;fill-opacity:1;stroke:none"
       transform="matrix(0.29427945,0,0,0.23788389,101.6747,263.77964)">
      <path
         id="path4161"
         style="font-family:'Times New Roman';-inkscape-font-specification:'Times New Roman';fill:#ffffff;fill-opacity:1"
         d="m 21.688854,23.636251 q -1.027975,-1.151333 -2.857771,-2.754974 -2.014832,-1.768118 -2.713855,-2.775534 -0.699024,-1.027975 -0.699024,-2.240986 0,-1.809237 1.68588,-2.837212 1.68588,-1.048535 4.399735,-1.048535 2.713855,0 4.728687,0.925178 2.035391,0.925177 2.035391,2.549379 0,0.781261 -0.493428,1.295249 -0.493428,0.513987 -1.151333,0.513987 -0.945737,0 -2.220426,-1.418606 -1.295249,-1.439165 -2.199868,-2.014832 -0.884059,-0.596225 -2.07651,-0.596225 -1.521404,0 -2.50826,0.678463 -0.966297,0.678464 -0.966297,1.726999 0,0.986857 0.801821,1.850356 0.801821,0.863499 4.132461,3.145605 3.556795,2.446581 5.01652,3.824068 1.480285,1.377487 2.405462,3.3512 0.925178,1.973713 0.925178,4.17358 0,3.865188 -2.734414,6.825757 -2.713855,2.94001 -6.352888,2.94001 -3.310081,0 -5.592187,-2.364344 -2.282105,-2.364343 -2.282105,-6.311769 0,-3.803509 2.50826,-6.352888 2.528819,-2.549379 6.208971,-3.083926 z m 0.904619,0.945737 q -5.900579,0.966297 -5.900579,8.100447 0,3.680152 1.459725,5.715543 1.480285,2.035391 3.433438,2.035391 2.035391,0 3.3512,-1.953153 1.315808,-1.973713 1.315808,-5.324913 0,-4.852044 -3.659592,-8.573315 z"
         inkscape:connector-curvature="0" />
    </g>
  </g>
</svg>
