<?xml version="1.0" encoding="UTF-8" standalone="no"?>
<svg
   xmlns:dc="http://purl.org/dc/elements/1.1/"
   xmlns:cc="http://creativecommons.org/ns#"
   xmlns:rdf="http://www.w3.org/1999/02/22-rdf-syntax-ns#"
   xmlns:svg="http://www.w3.org/2000/svg"
   xmlns="http://www.w3.org/2000/svg"
   xmlns:sodipodi="http://sodipodi.sourceforge.net/DTD/sodipodi-0.dtd"
   xmlns:inkscape="http://www.inkscape.org/namespaces/inkscape"
   inkscape:version="1.0beta1 (32d4812, 2019-09-19)"
   sodipodi:docname="unpin3.svg"
   id="svg835"
   version="1.1"
   enable-background="new 0 0 24 24"
   viewBox="0 0 24 24">
  <metadata
     id="metadata841">
    <rdf:RDF>
      <cc:Work
         rdf:about="">
        <dc:format>image/svg+xml</dc:format>
        <dc:type
           rdf:resource="http://purl.org/dc/dcmitype/StillImage" />
        <dc:title></dc:title>
      </cc:Work>
    </rdf:RDF>
  </metadata>
  <defs
     id="defs839" />
  <sodipodi:namedview
     inkscape:current-layer="svg835"
     inkscape:window-maximized="0"
     inkscape:window-y="23"
     inkscape:window-x="45"
     inkscape:cy="9.303114"
     inkscape:cx="9.9561239"
     inkscape:zoom="22.4"
     showgrid="false"
     id="namedview837"
     inkscape:window-height="855"
     inkscape:window-width="1395"
     inkscape:pageshadow="2"
     inkscape:pageopacity="0"
     guidetolerance="10"
     gridtolerance="10"
     objecttolerance="10"
     borderopacity="1"
     inkscape:document-rotation="0"
     bordercolor="#666666"
     pagecolor="#ffffff" />
  <path
     d="M 14.552734 3.7832031 L 13.960938 4.3730469 C 13.430543 4.9031338 13.297357 5.6537736 13.585938 6.2773438 L 10.783203 8.53125 L 15.308594 13.041016 L 17.607422 10.193359 C 18.200594 10.409428 18.857941 10.286307 19.351562 9.7929688 L 20.048828 9.2832031 L 14.552734 3.7832031 z M 8.2871094 8.5761719 C 8.0226852 8.5760952 7.7603239 8.6501386 7.515625 8.7832031 L 15.054688 16.294922 C 15.388672 15.660663 15.287435 14.901036 14.736328 14.349609 L 14.46875 14.082031 L 14.998047 13.425781 L 10.398438 8.8398438 L 9.75 9.3613281 L 9.4804688 9.0917969 C 9.1372791 8.7484077 8.7121983 8.576295 8.2871094 8.5761719 z M 7.1132812 9.0761719 C 7.1071373 9.082154 7.0998431 9.0857073 7.09375 9.0917969 L 6.3164062 9.8691406 L 13.957031 17.515625 L 14.736328 16.736328 C 14.747478 16.725185 14.754838 16.712485 14.765625 16.701172 L 7.1132812 9.0761719 z M 8.7285156 13.919922 L 2.8808594 19.738281 L 2.8808594 20.945312 L 4.0878906 20.945312 L 9.9082031 15.099609 L 8.7285156 13.919922 z "
     style="fill:#000000;stroke-width:0.858224"
     id="path833" />
  <rect
     transform="matrix(0.70884482,0.70536446,-0.70487696,0.70932959,0,0)"
     y="-1.0689474"
     x="3.653137"
     height="1.9781659"
     width="26.392796"
     id="rect1562"
     style="opacity:1;fill:#000000;stroke:none;stroke-width:1.16607;stroke-opacity:1;stop-opacity:1" />
</svg>
